<svg width="807" height="128" viewBox="0 0 807 128" fill="none" xmlns="http://www.w3.org/2000/svg">
<rect width="128" height="128" rx="12" fill="#22C55E"/>
<path fill-rule="evenodd" clip-rule="evenodd" d="M76.3919 74.9466C76.4437 74.7817 76.4926 74.6164 76.5388 74.4507C76.4899 74.6024 76.4406 74.7682 76.3919 74.9466Z" fill="white"/>
<path fill-rule="evenodd" clip-rule="evenodd" d="M49.6876 58.9664C49.5834 59.0817 49.4678 59.2039 49.3415 59.3316C49.4552 59.2078 49.5706 59.0861 49.6876 58.9664Z" fill="white"/>
<path d="M76.3919 74.9466C76.4406 74.7682 76.4899 74.6024 76.5388 74.4507C78.451 67.5862 75.5754 60.038 69.1189 56.3104C62.6576 52.5799 54.6755 53.8684 49.6876 58.9664C49.5834 59.0817 49.4678 59.2039 49.3415 59.3316C47.5323 61.1605 43.5317 64.1068 39.4849 63.6381C33.22 62.7617 26.7636 65.672 23.4061 71.4873C18.9878 79.1401 21.6095 88.9253 29.2625 93.3437C35.4981 96.9438 40.6993 96.8676 42.5209 96.3796C43.8036 96.1579 46.6386 96.4476 47.717 99.3796C48.2052 101.201 50.7398 105.744 56.9753 109.344C64.6283 113.762 74.4134 111.14 78.8317 103.487C82.1892 97.672 81.4815 90.6255 77.59 85.6381C75.1647 82.3733 75.7126 77.4374 76.3919 74.9466Z" fill="white"/>
<path d="M99.4034 87.5163C91.3948 91.2508 82.6319 89.409 79.8311 83.4025C77.0302 77.396 81.2519 69.4994 89.2606 65.7649C97.2692 62.0304 106.032 63.8723 108.833 69.8787C111.634 75.8852 107.412 83.7818 99.4034 87.5163Z" fill="white"/>
<path d="M76.2708 39.5581C73.2485 47.8617 65.7499 52.7557 59.5222 50.4889C53.2944 48.2222 50.6959 39.6533 53.7182 31.3496C56.7405 23.046 64.2391 18.1521 70.4668 20.4188C76.6946 22.6855 79.2931 31.2545 76.2708 39.5581Z" fill="white"/>
<path d="M97.57 56.6676C91.89 63.4368 83.1698 65.4709 78.0929 61.2108C73.016 56.9508 73.5049 48.0099 79.185 41.2407C84.865 34.4715 93.5852 32.4374 98.6621 36.6974C103.739 40.9574 103.25 49.8984 97.57 56.6676Z" fill="white"/>
<path d="M49.9946 43.0948C50.7648 51.8977 46.037 59.5021 39.4348 60.0797C32.8326 60.6574 26.8561 53.9894 26.0859 45.1865C25.3158 36.3836 30.0436 28.7791 36.6458 28.2015C43.248 27.6239 49.2245 34.2918 49.9946 43.0948Z" fill="white"/>
<path d="M200.904 38.456V48.32H187.512V89H175.2V48.32H161.808V38.456H200.904ZM231.779 48.392C236.387 48.392 240.083 49.928 242.867 53C245.651 56.024 247.043 60.2 247.043 65.528V89H234.803V67.184C234.803 64.496 234.107 62.408 232.715 60.92C231.323 59.432 229.451 58.688 227.099 58.688C224.747 58.688 222.875 59.432 221.483 60.92C220.091 62.408 219.395 64.496 219.395 67.184V89H207.083V35.72H219.395V54.224C220.643 52.448 222.347 51.032 224.507 49.976C226.667 48.92 229.091 48.392 231.779 48.392ZM280.366 45.368C279.166 44.552 277.942 43.664 276.694 42.704C275.446 41.696 274.198 40.64 272.95 39.536C271.702 40.64 270.454 41.696 269.206 42.704C267.958 43.664 266.734 44.552 265.534 45.368H259.846V44.432C260.662 43.52 261.502 42.512 262.366 41.408C263.23 40.256 264.094 39.104 264.958 37.952C265.87 36.752 266.686 35.624 267.406 34.568H278.494C279.262 35.624 280.078 36.752 280.942 37.952C281.806 39.104 282.67 40.256 283.534 41.408C284.446 42.512 285.286 43.52 286.054 44.432V45.368H280.366ZM282.958 37.592C283.918 36.584 284.758 35.552 285.478 34.496C286.246 33.392 287.014 32.072 287.782 30.536H296.278V31.256C295.222 32.648 293.974 33.968 292.534 35.216C291.094 36.416 289.678 37.52 288.286 38.528H282.958V37.592ZM272.95 48.968C276.598 48.968 279.718 49.664 282.31 51.056C284.95 52.448 286.99 54.464 288.43 57.104C289.87 59.744 290.59 62.984 290.59 66.824V72.008H265.246C265.342 75.032 266.23 77.408 267.91 79.136C269.638 80.864 272.014 81.728 275.038 81.728C277.582 81.728 279.886 81.488 281.95 81.008C284.014 80.48 286.15 79.688 288.358 78.632V86.912C286.438 87.872 284.398 88.568 282.238 89C280.126 89.48 277.558 89.72 274.534 89.72C270.598 89.72 267.118 89 264.094 87.56C261.07 86.072 258.694 83.84 256.966 80.864C255.238 77.888 254.374 74.144 254.374 69.632C254.374 65.024 255.142 61.208 256.678 58.184C258.262 55.112 260.446 52.808 263.23 51.272C266.014 49.736 269.254 48.968 272.95 48.968ZM273.022 56.6C270.958 56.6 269.23 57.272 267.838 58.616C266.494 59.96 265.702 62.048 265.462 64.88H280.51C280.51 63.296 280.222 61.88 279.646 60.632C279.118 59.384 278.302 58.4 277.198 57.68C276.094 56.96 274.702 56.6 273.022 56.6ZM346.947 54.44C346.035 52.76 344.715 51.488 342.987 50.624C341.307 49.712 339.315 49.256 337.011 49.256C333.027 49.256 329.835 50.576 327.435 53.216C325.035 55.808 323.835 59.288 323.835 63.656C323.835 68.312 325.083 71.96 327.579 74.6C330.123 77.192 333.603 78.488 338.019 78.488C341.043 78.488 343.587 77.72 345.651 76.184C347.763 74.648 349.299 72.44 350.259 69.56H334.635V60.488H361.419V71.936C360.507 75.008 358.947 77.864 356.739 80.504C354.579 83.144 351.819 85.28 348.459 86.912C345.099 88.544 341.307 89.36 337.083 89.36C332.091 89.36 327.627 88.28 323.691 86.12C319.803 83.912 316.755 80.864 314.547 76.976C312.387 73.088 311.307 68.648 311.307 63.656C311.307 58.664 312.387 54.224 314.547 50.336C316.755 46.4 319.803 43.352 323.691 41.192C327.579 38.984 332.019 37.88 337.011 37.88C343.059 37.88 348.147 39.344 352.275 42.272C356.451 45.2 359.211 49.256 360.555 54.44H346.947ZM374.431 44.648C372.271 44.648 370.495 44.024 369.103 42.776C367.759 41.48 367.087 39.896 367.087 38.024C367.087 36.104 367.759 34.52 369.103 33.272C370.495 31.976 372.271 31.328 374.431 31.328C376.543 31.328 378.271 31.976 379.615 33.272C381.007 34.52 381.703 36.104 381.703 38.024C381.703 39.896 381.007 41.48 379.615 42.776C378.271 44.024 376.543 44.648 374.431 44.648ZM380.551 48.824V89H368.239V48.824H380.551ZM426.337 69.272C426.337 73.64 425.545 77.36 423.961 80.432C422.425 83.456 420.217 85.76 417.337 87.344C414.505 88.928 411.121 89.72 407.185 89.72C403.537 89.72 400.273 88.928 397.393 87.344C394.561 85.76 392.329 83.456 390.697 80.432C389.065 77.36 388.249 73.64 388.249 69.272C388.249 62.744 389.953 57.728 393.361 54.224C396.769 50.72 401.449 48.968 407.401 48.968C410.041 48.968 412.537 49.376 414.889 50.192C417.241 51.008 419.233 52.208 420.865 53.792C422.161 53.408 423.193 52.76 423.961 51.848C424.729 50.888 425.281 49.736 425.617 48.392C425.953 47 426.121 45.464 426.121 43.784H436.705L437.209 44.576C436.729 46.88 436.057 49.04 435.193 51.056C434.377 53.024 433.129 54.728 431.449 56.168C429.769 57.608 427.465 58.712 424.537 59.48C425.113 60.872 425.545 62.384 425.833 64.016C426.169 65.648 426.337 67.4 426.337 69.272ZM399.193 69.272C399.193 71.864 399.457 74.048 399.985 75.824C400.561 77.552 401.449 78.872 402.649 79.784C403.849 80.648 405.409 81.08 407.329 81.08C409.249 81.08 410.785 80.648 411.937 79.784C413.137 78.872 414.001 77.552 414.529 75.824C415.105 74.048 415.393 71.864 415.393 69.272C415.393 66.68 415.105 64.52 414.529 62.792C414.001 61.064 413.137 59.768 411.937 58.904C410.737 58.04 409.177 57.608 407.257 57.608C404.425 57.608 402.361 58.592 401.065 60.56C399.817 62.48 399.193 65.384 399.193 69.272ZM421.153 34.568C420.481 35.24 419.593 36.056 418.489 37.016C417.385 37.976 416.185 38.984 414.889 40.04C413.641 41.096 412.393 42.104 411.145 43.064C409.945 43.976 408.889 44.744 407.977 45.368H400.849V44.432C401.617 43.52 402.505 42.464 403.513 41.264C404.569 40.016 405.601 38.744 406.609 37.448C407.617 36.104 408.457 34.904 409.129 33.848H421.153V34.568ZM444.532 44.648C442.372 44.648 440.596 44.024 439.204 42.776C437.86 41.48 437.188 39.896 437.188 38.024C437.188 36.104 437.86 34.52 439.204 33.272C440.596 31.976 442.372 31.328 444.532 31.328C446.644 31.328 448.372 31.976 449.716 33.272C451.108 34.52 451.804 36.104 451.804 38.024C451.804 39.896 451.108 41.48 449.716 42.776C448.372 44.024 446.644 44.648 444.532 44.648ZM450.652 48.824V89H438.34V48.824H450.652ZM494.129 38.456C499.457 38.456 504.113 39.512 508.097 41.624C512.129 43.736 515.225 46.712 517.385 50.552C519.545 54.344 520.625 58.736 520.625 63.728C520.625 68.672 519.545 73.064 517.385 76.904C515.225 80.744 512.129 83.72 508.097 85.832C504.113 87.944 499.457 89 494.129 89H475.193V68.84H470.657V58.616H475.193V38.456H494.129ZM493.409 78.488C498.017 78.488 501.617 77.192 504.209 74.6C506.801 72.008 508.097 68.384 508.097 63.728C508.097 59.072 506.801 55.448 504.209 52.856C501.617 50.264 498.017 48.968 493.409 48.968H487.577V58.616H498.521V68.84H487.577V78.488H493.409ZM564.431 69.272C564.431 72.536 563.975 75.44 563.063 77.984C562.199 80.528 560.927 82.688 559.247 84.464C557.615 86.192 555.623 87.512 553.271 88.424C550.919 89.288 548.255 89.72 545.279 89.72C542.543 89.72 539.999 89.288 537.647 88.424C535.343 87.512 533.351 86.192 531.671 84.464C529.991 82.688 528.671 80.528 527.711 77.984C526.799 75.44 526.343 72.536 526.343 69.272C526.343 64.904 527.111 61.232 528.647 58.256C530.183 55.232 532.391 52.928 535.271 51.344C538.151 49.76 541.559 48.968 545.495 48.968C549.191 48.968 552.455 49.76 555.287 51.344C558.119 52.928 560.351 55.232 561.983 58.256C563.615 61.232 564.431 64.904 564.431 69.272ZM537.287 69.272C537.287 71.864 537.551 74.048 538.079 75.824C538.655 77.552 539.543 78.872 540.743 79.784C541.943 80.648 543.503 81.08 545.423 81.08C547.343 81.08 548.879 80.648 550.031 79.784C551.231 78.872 552.095 77.552 552.623 75.824C553.199 74.048 553.487 71.864 553.487 69.272C553.487 66.68 553.199 64.52 552.623 62.792C552.095 61.064 551.231 59.768 550.031 58.904C548.831 58.04 547.271 57.608 545.351 57.608C542.519 57.608 540.455 58.592 539.159 60.56C537.911 62.48 537.287 65.384 537.287 69.272ZM545.351 104.12C543.719 104.12 542.327 103.736 541.175 102.968C540.071 102.2 539.519 100.832 539.519 98.864C539.519 96.848 540.071 95.456 541.175 94.688C542.327 93.968 543.719 93.608 545.351 93.608C546.935 93.608 548.303 93.968 549.455 94.688C550.607 95.456 551.183 96.848 551.183 98.864C551.183 100.832 550.607 102.2 549.455 102.968C548.303 103.736 546.935 104.12 545.351 104.12ZM551.759 33.848C552.431 34.904 553.295 36.104 554.351 37.448C555.455 38.744 556.583 40.016 557.735 41.264C558.887 42.512 559.895 43.568 560.759 44.432V45.368H553.631C552.383 44.6 551.015 43.712 549.527 42.704C548.039 41.648 546.671 40.472 545.423 39.176C544.175 40.472 542.831 41.624 541.391 42.632C539.951 43.64 538.607 44.552 537.359 45.368H530.231V44.432C531.143 43.52 532.151 42.464 533.255 41.264C534.407 40.016 535.511 38.744 536.567 37.448C537.671 36.104 538.559 34.904 539.231 33.848H551.759ZM596.625 48.392C601.329 48.392 605.073 49.928 607.857 53C610.689 56.024 612.105 60.2 612.105 65.528V89H599.865V67.184C599.865 64.496 599.169 62.408 597.777 60.92C596.385 59.432 594.513 58.688 592.161 58.688C589.809 58.688 587.937 59.432 586.545 60.92C585.153 62.408 584.457 64.496 584.457 67.184V89H572.145V48.824H584.457V54.152C585.705 52.376 587.385 50.984 589.497 49.976C591.609 48.92 593.985 48.392 596.625 48.392ZM635.925 48.248C638.757 48.248 641.229 48.824 643.341 49.976C645.501 51.128 647.157 52.64 648.309 54.512V48.824H660.621V88.928C660.621 92.624 659.877 95.96 658.389 98.936C656.949 101.96 654.717 104.36 651.693 106.136C648.717 107.912 644.997 108.8 640.533 108.8C634.581 108.8 629.757 107.384 626.061 104.552C622.365 101.768 620.253 97.976 619.725 93.176H631.893C632.277 94.712 633.189 95.912 634.629 96.776C636.069 97.688 637.845 98.144 639.957 98.144C642.501 98.144 644.517 97.4 646.005 95.912C647.541 94.472 648.309 92.144 648.309 88.928V83.24C647.109 85.112 645.453 86.648 643.341 87.848C641.229 89 638.757 89.576 635.925 89.576C632.613 89.576 629.613 88.736 626.925 87.056C624.237 85.328 622.101 82.904 620.517 79.784C618.981 76.616 618.213 72.968 618.213 68.84C618.213 64.712 618.981 61.088 620.517 57.968C622.101 54.848 624.237 52.448 626.925 50.768C629.613 49.088 632.613 48.248 635.925 48.248ZM648.309 68.912C648.309 65.84 647.445 63.416 645.717 61.64C644.037 59.864 641.973 58.976 639.525 58.976C637.077 58.976 634.989 59.864 633.261 61.64C631.581 63.368 630.741 65.768 630.741 68.84C630.741 71.912 631.581 74.36 633.261 76.184C634.989 77.96 637.077 78.848 639.525 78.848C641.973 78.848 644.037 77.96 645.717 76.184C647.445 74.408 648.309 71.984 648.309 68.912ZM732.234 38.456L714.306 89H698.898L680.97 38.456H694.074L706.602 76.616L719.202 38.456H732.234ZM754.66 48.896C759.94 48.896 763.972 50.048 766.756 52.352C769.588 54.608 771.004 58.088 771.004 62.792V89H763.516L761.428 83.672H761.14C760.036 85.064 758.884 86.216 757.684 87.128C756.532 88.04 755.188 88.688 753.652 89.072C752.164 89.504 750.316 89.72 748.108 89.72C745.804 89.72 743.716 89.288 741.844 88.424C740.02 87.512 738.58 86.144 737.524 84.32C736.468 82.448 735.94 80.096 735.94 77.264C735.94 73.088 737.404 70.016 740.332 68.048C743.26 66.032 747.652 64.928 753.508 64.736L760.348 64.52V62.792C760.348 60.728 759.796 59.216 758.692 58.256C757.636 57.296 756.148 56.816 754.228 56.816C752.308 56.816 750.436 57.104 748.612 57.68C746.788 58.208 744.964 58.88 743.14 59.696L739.612 52.424C741.724 51.32 744.052 50.456 746.596 49.832C749.188 49.208 751.876 48.896 754.66 48.896ZM756.172 70.928C752.716 71.024 750.316 71.648 748.972 72.8C747.628 73.952 746.956 75.464 746.956 77.336C746.956 78.968 747.436 80.144 748.396 80.864C749.356 81.536 750.604 81.872 752.14 81.872C754.444 81.872 756.388 81.2 757.972 79.856C759.556 78.464 760.348 76.52 760.348 74.024V70.784L756.172 70.928ZM760.996 33.848C761.668 34.904 762.532 36.104 763.588 37.448C764.692 38.744 765.82 40.016 766.972 41.264C768.124 42.512 769.132 43.568 769.996 44.432V45.368H762.868C761.62 44.6 760.252 43.712 758.764 42.704C757.276 41.648 755.908 40.472 754.66 39.176C753.412 40.472 752.068 41.624 750.628 42.632C749.188 43.64 747.844 44.552 746.596 45.368H739.468V44.432C740.38 43.52 741.388 42.464 742.492 41.264C743.644 40.016 744.748 38.744 745.804 37.448C746.908 36.104 747.796 34.904 748.468 33.848H760.996ZM753.796 104.12C752.164 104.12 750.772 103.736 749.62 102.968C748.516 102.2 747.964 100.832 747.964 98.864C747.964 96.848 748.516 95.456 749.62 94.688C750.772 93.968 752.164 93.608 753.796 93.608C755.38 93.608 756.748 93.968 757.9 94.688C759.052 95.456 759.628 96.848 759.628 98.864C759.628 100.832 759.052 102.2 757.9 102.968C756.748 103.736 755.38 104.12 753.796 104.12ZM803.225 78.56V89H796.961C792.497 89 789.017 87.92 786.521 85.76C784.025 83.552 782.777 79.976 782.777 75.032V59.048H777.881V48.824H782.777V39.032H795.089V48.824H803.153V59.048H795.089V75.176C795.089 76.376 795.377 77.24 795.953 77.768C796.529 78.296 797.489 78.56 798.833 78.56H803.225Z" fill="white"/>
</svg>
