<svg width="806" height="128" viewBox="0 0 806 128" fill="none" xmlns="http://www.w3.org/2000/svg">
<rect width="128" height="128" rx="12" fill="#0F172A"/>
<path fill-rule="evenodd" clip-rule="evenodd" d="M76.3919 74.9466C76.4437 74.7817 76.4926 74.6164 76.5388 74.4507C76.4899 74.6024 76.4406 74.7682 76.3919 74.9466Z" fill="white"/>
<path fill-rule="evenodd" clip-rule="evenodd" d="M49.6876 58.9664C49.5834 59.0817 49.4678 59.2039 49.3415 59.3316C49.4552 59.2078 49.5706 59.0861 49.6876 58.9664Z" fill="white"/>
<path d="M76.3919 74.9466C76.4406 74.7682 76.4899 74.6024 76.5388 74.4507C78.451 67.5862 75.5754 60.038 69.1189 56.3104C62.6576 52.5799 54.6755 53.8685 49.6876 58.9664C49.5834 59.0817 49.4678 59.2039 49.3415 59.3316C47.5323 61.1605 43.5317 64.1068 39.4849 63.6381C33.22 62.7617 26.7636 65.672 23.4061 71.4873C18.9878 79.1401 21.6095 88.9253 29.2625 93.3437C35.4981 96.9438 40.6993 96.8676 42.5209 96.3796C43.8036 96.1579 46.6386 96.4476 47.717 99.3796C48.2052 101.201 50.7398 105.744 56.9753 109.344C64.6283 113.762 74.4134 111.14 78.8317 103.487C82.1892 97.672 81.4815 90.6255 77.59 85.6381C75.1647 82.3733 75.7126 77.4374 76.3919 74.9466Z" fill="white"/>
<path d="M99.4034 87.5163C91.3948 91.2508 82.6319 89.409 79.8311 83.4025C77.0302 77.396 81.2519 69.4994 89.2606 65.7649C97.2692 62.0304 106.032 63.8723 108.833 69.8787C111.634 75.8852 107.412 83.7818 99.4034 87.5163Z" fill="white"/>
<path d="M76.2708 39.5581C73.2485 47.8617 65.7499 52.7557 59.5222 50.4889C53.2944 48.2222 50.6959 39.6533 53.7182 31.3496C56.7405 23.046 64.2391 18.1521 70.4668 20.4188C76.6946 22.6855 79.2931 31.2545 76.2708 39.5581Z" fill="white"/>
<path d="M97.57 56.6676C91.89 63.4368 83.1698 65.4709 78.0929 61.2108C73.016 56.9508 73.5049 48.0099 79.185 41.2407C84.865 34.4715 93.5852 32.4374 98.6621 36.6974C103.739 40.9574 103.25 49.8984 97.57 56.6676Z" fill="white"/>
<path d="M49.9946 43.0948C50.7648 51.8977 46.037 59.5021 39.4348 60.0797C32.8326 60.6574 26.8561 53.9894 26.0859 45.1865C25.3158 36.3836 30.0436 28.7791 36.6458 28.2015C43.248 27.6239 49.2245 34.2918 49.9946 43.0948Z" fill="white"/>
<path d="M200.824 38.456V48.32H187.432V89H175.12V48.32H161.728V38.456H200.824ZM231.699 48.392C236.307 48.392 240.003 49.928 242.787 53C245.571 56.024 246.963 60.2 246.963 65.528V89H234.723V67.184C234.723 64.496 234.027 62.408 232.635 60.92C231.243 59.432 229.371 58.688 227.019 58.688C224.667 58.688 222.795 59.432 221.403 60.92C220.011 62.408 219.315 64.496 219.315 67.184V89H207.003V35.72H219.315V54.224C220.563 52.448 222.267 51.032 224.427 49.976C226.587 48.92 229.011 48.392 231.699 48.392ZM280.287 45.368C279.087 44.552 277.863 43.664 276.615 42.704C275.367 41.696 274.119 40.64 272.871 39.536C271.623 40.64 270.375 41.696 269.127 42.704C267.879 43.664 266.655 44.552 265.455 45.368H259.767V44.432C260.583 43.52 261.423 42.512 262.287 41.408C263.151 40.256 264.015 39.104 264.879 37.952C265.791 36.752 266.607 35.624 267.327 34.568H278.415C279.183 35.624 279.999 36.752 280.863 37.952C281.727 39.104 282.591 40.256 283.455 41.408C284.367 42.512 285.207 43.52 285.975 44.432V45.368H280.287ZM282.879 37.592C283.839 36.584 284.679 35.552 285.399 34.496C286.167 33.392 286.935 32.072 287.703 30.536H296.199V31.256C295.143 32.648 293.895 33.968 292.455 35.216C291.015 36.416 289.599 37.52 288.207 38.528H282.879V37.592ZM272.871 48.968C276.519 48.968 279.639 49.664 282.231 51.056C284.871 52.448 286.911 54.464 288.351 57.104C289.791 59.744 290.511 62.984 290.511 66.824V72.008H265.167C265.263 75.032 266.151 77.408 267.831 79.136C269.559 80.864 271.935 81.728 274.959 81.728C277.503 81.728 279.807 81.488 281.871 81.008C283.935 80.48 286.071 79.688 288.279 78.632V86.912C286.359 87.872 284.319 88.568 282.159 89C280.047 89.48 277.479 89.72 274.455 89.72C270.519 89.72 267.039 89 264.015 87.56C260.991 86.072 258.615 83.84 256.887 80.864C255.159 77.888 254.295 74.144 254.295 69.632C254.295 65.024 255.063 61.208 256.599 58.184C258.183 55.112 260.367 52.808 263.151 51.272C265.935 49.736 269.175 48.968 272.871 48.968ZM272.943 56.6C270.879 56.6 269.151 57.272 267.759 58.616C266.415 59.96 265.623 62.048 265.383 64.88H280.431C280.431 63.296 280.143 61.88 279.567 60.632C279.039 59.384 278.223 58.4 277.119 57.68C276.015 56.96 274.623 56.6 272.943 56.6ZM346.868 54.44C345.956 52.76 344.636 51.488 342.908 50.624C341.228 49.712 339.236 49.256 336.932 49.256C332.948 49.256 329.756 50.576 327.356 53.216C324.956 55.808 323.756 59.288 323.756 63.656C323.756 68.312 325.004 71.96 327.5 74.6C330.044 77.192 333.524 78.488 337.94 78.488C340.964 78.488 343.508 77.72 345.572 76.184C347.684 74.648 349.22 72.44 350.18 69.56H334.556V60.488H361.34V71.936C360.428 75.008 358.868 77.864 356.66 80.504C354.5 83.144 351.74 85.28 348.38 86.912C345.02 88.544 341.228 89.36 337.004 89.36C332.012 89.36 327.548 88.28 323.612 86.12C319.724 83.912 316.676 80.864 314.468 76.976C312.308 73.088 311.228 68.648 311.228 63.656C311.228 58.664 312.308 54.224 314.468 50.336C316.676 46.4 319.724 43.352 323.612 41.192C327.5 38.984 331.94 37.88 336.932 37.88C342.98 37.88 348.068 39.344 352.196 42.272C356.372 45.2 359.132 49.256 360.476 54.44H346.868ZM374.351 44.648C372.191 44.648 370.415 44.024 369.023 42.776C367.679 41.48 367.007 39.896 367.007 38.024C367.007 36.104 367.679 34.52 369.023 33.272C370.415 31.976 372.191 31.328 374.351 31.328C376.463 31.328 378.191 31.976 379.535 33.272C380.927 34.52 381.623 36.104 381.623 38.024C381.623 39.896 380.927 41.48 379.535 42.776C378.191 44.024 376.463 44.648 374.351 44.648ZM380.471 48.824V89H368.159V48.824H380.471ZM426.258 69.272C426.258 73.64 425.466 77.36 423.882 80.432C422.346 83.456 420.138 85.76 417.258 87.344C414.426 88.928 411.042 89.72 407.106 89.72C403.458 89.72 400.194 88.928 397.314 87.344C394.482 85.76 392.25 83.456 390.618 80.432C388.986 77.36 388.17 73.64 388.17 69.272C388.17 62.744 389.874 57.728 393.282 54.224C396.69 50.72 401.37 48.968 407.322 48.968C409.962 48.968 412.458 49.376 414.81 50.192C417.162 51.008 419.154 52.208 420.786 53.792C422.082 53.408 423.114 52.76 423.882 51.848C424.65 50.888 425.202 49.736 425.538 48.392C425.874 47 426.042 45.464 426.042 43.784H436.626L437.13 44.576C436.65 46.88 435.978 49.04 435.114 51.056C434.298 53.024 433.05 54.728 431.37 56.168C429.69 57.608 427.386 58.712 424.458 59.48C425.034 60.872 425.466 62.384 425.754 64.016C426.09 65.648 426.258 67.4 426.258 69.272ZM399.114 69.272C399.114 71.864 399.378 74.048 399.906 75.824C400.482 77.552 401.37 78.872 402.57 79.784C403.77 80.648 405.33 81.08 407.25 81.08C409.17 81.08 410.706 80.648 411.858 79.784C413.058 78.872 413.922 77.552 414.45 75.824C415.026 74.048 415.314 71.864 415.314 69.272C415.314 66.68 415.026 64.52 414.45 62.792C413.922 61.064 413.058 59.768 411.858 58.904C410.658 58.04 409.098 57.608 407.178 57.608C404.346 57.608 402.282 58.592 400.986 60.56C399.738 62.48 399.114 65.384 399.114 69.272ZM421.074 34.568C420.402 35.24 419.514 36.056 418.41 37.016C417.306 37.976 416.106 38.984 414.81 40.04C413.562 41.096 412.314 42.104 411.066 43.064C409.866 43.976 408.81 44.744 407.898 45.368H400.77V44.432C401.538 43.52 402.426 42.464 403.434 41.264C404.49 40.016 405.522 38.744 406.53 37.448C407.538 36.104 408.378 34.904 409.05 33.848H421.074V34.568ZM444.453 44.648C442.293 44.648 440.517 44.024 439.125 42.776C437.781 41.48 437.109 39.896 437.109 38.024C437.109 36.104 437.781 34.52 439.125 33.272C440.517 31.976 442.293 31.328 444.453 31.328C446.565 31.328 448.293 31.976 449.637 33.272C451.029 34.52 451.725 36.104 451.725 38.024C451.725 39.896 451.029 41.48 449.637 42.776C448.293 44.024 446.565 44.648 444.453 44.648ZM450.573 48.824V89H438.261V48.824H450.573ZM494.049 38.456C499.377 38.456 504.033 39.512 508.017 41.624C512.049 43.736 515.145 46.712 517.305 50.552C519.465 54.344 520.545 58.736 520.545 63.728C520.545 68.672 519.465 73.064 517.305 76.904C515.145 80.744 512.049 83.72 508.017 85.832C504.033 87.944 499.377 89 494.049 89H475.113V68.84H470.577V58.616H475.113V38.456H494.049ZM493.329 78.488C497.937 78.488 501.537 77.192 504.129 74.6C506.721 72.008 508.017 68.384 508.017 63.728C508.017 59.072 506.721 55.448 504.129 52.856C501.537 50.264 497.937 48.968 493.329 48.968H487.497V58.616H498.441V68.84H487.497V78.488H493.329ZM564.351 69.272C564.351 72.536 563.895 75.44 562.983 77.984C562.119 80.528 560.847 82.688 559.167 84.464C557.535 86.192 555.543 87.512 553.191 88.424C550.839 89.288 548.175 89.72 545.199 89.72C542.463 89.72 539.919 89.288 537.567 88.424C535.263 87.512 533.271 86.192 531.591 84.464C529.911 82.688 528.591 80.528 527.631 77.984C526.719 75.44 526.263 72.536 526.263 69.272C526.263 64.904 527.031 61.232 528.567 58.256C530.103 55.232 532.311 52.928 535.191 51.344C538.071 49.76 541.479 48.968 545.415 48.968C549.111 48.968 552.375 49.76 555.207 51.344C558.039 52.928 560.271 55.232 561.903 58.256C563.535 61.232 564.351 64.904 564.351 69.272ZM537.207 69.272C537.207 71.864 537.471 74.048 537.999 75.824C538.575 77.552 539.463 78.872 540.663 79.784C541.863 80.648 543.423 81.08 545.343 81.08C547.263 81.08 548.799 80.648 549.951 79.784C551.151 78.872 552.015 77.552 552.543 75.824C553.119 74.048 553.407 71.864 553.407 69.272C553.407 66.68 553.119 64.52 552.543 62.792C552.015 61.064 551.151 59.768 549.951 58.904C548.751 58.04 547.191 57.608 545.271 57.608C542.439 57.608 540.375 58.592 539.079 60.56C537.831 62.48 537.207 65.384 537.207 69.272ZM545.271 104.12C543.639 104.12 542.247 103.736 541.095 102.968C539.991 102.2 539.439 100.832 539.439 98.864C539.439 96.848 539.991 95.456 541.095 94.688C542.247 93.968 543.639 93.608 545.271 93.608C546.855 93.608 548.223 93.968 549.375 94.688C550.527 95.456 551.103 96.848 551.103 98.864C551.103 100.832 550.527 102.2 549.375 102.968C548.223 103.736 546.855 104.12 545.271 104.12ZM551.679 33.848C552.351 34.904 553.215 36.104 554.271 37.448C555.375 38.744 556.503 40.016 557.655 41.264C558.807 42.512 559.815 43.568 560.679 44.432V45.368H553.551C552.303 44.6 550.935 43.712 549.447 42.704C547.959 41.648 546.591 40.472 545.343 39.176C544.095 40.472 542.751 41.624 541.311 42.632C539.871 43.64 538.527 44.552 537.279 45.368H530.151V44.432C531.063 43.52 532.071 42.464 533.175 41.264C534.327 40.016 535.431 38.744 536.487 37.448C537.591 36.104 538.479 34.904 539.151 33.848H551.679ZM596.546 48.392C601.25 48.392 604.994 49.928 607.778 53C610.61 56.024 612.026 60.2 612.026 65.528V89H599.786V67.184C599.786 64.496 599.09 62.408 597.698 60.92C596.306 59.432 594.434 58.688 592.082 58.688C589.73 58.688 587.858 59.432 586.466 60.92C585.074 62.408 584.378 64.496 584.378 67.184V89H572.066V48.824H584.378V54.152C585.626 52.376 587.306 50.984 589.418 49.976C591.53 48.92 593.906 48.392 596.546 48.392ZM635.845 48.248C638.677 48.248 641.149 48.824 643.261 49.976C645.421 51.128 647.077 52.64 648.229 54.512V48.824H660.541V88.928C660.541 92.624 659.797 95.96 658.309 98.936C656.869 101.96 654.637 104.36 651.613 106.136C648.637 107.912 644.917 108.8 640.453 108.8C634.501 108.8 629.677 107.384 625.981 104.552C622.285 101.768 620.173 97.976 619.645 93.176H631.813C632.197 94.712 633.109 95.912 634.549 96.776C635.989 97.688 637.765 98.144 639.877 98.144C642.421 98.144 644.437 97.4 645.925 95.912C647.461 94.472 648.229 92.144 648.229 88.928V83.24C647.029 85.112 645.373 86.648 643.261 87.848C641.149 89 638.677 89.576 635.845 89.576C632.533 89.576 629.533 88.736 626.845 87.056C624.157 85.328 622.021 82.904 620.437 79.784C618.901 76.616 618.133 72.968 618.133 68.84C618.133 64.712 618.901 61.088 620.437 57.968C622.021 54.848 624.157 52.448 626.845 50.768C629.533 49.088 632.533 48.248 635.845 48.248ZM648.229 68.912C648.229 65.84 647.365 63.416 645.637 61.64C643.957 59.864 641.893 58.976 639.445 58.976C636.997 58.976 634.909 59.864 633.181 61.64C631.501 63.368 630.661 65.768 630.661 68.84C630.661 71.912 631.501 74.36 633.181 76.184C634.909 77.96 636.997 78.848 639.445 78.848C641.893 78.848 643.957 77.96 645.637 76.184C647.365 74.408 648.229 71.984 648.229 68.912ZM732.154 38.456L714.226 89H698.818L680.89 38.456H693.994L706.522 76.616L719.122 38.456H732.154ZM754.58 48.896C759.86 48.896 763.892 50.048 766.676 52.352C769.508 54.608 770.924 58.088 770.924 62.792V89H763.436L761.348 83.672H761.06C759.956 85.064 758.804 86.216 757.604 87.128C756.452 88.04 755.108 88.688 753.572 89.072C752.084 89.504 750.236 89.72 748.028 89.72C745.724 89.72 743.636 89.288 741.764 88.424C739.94 87.512 738.5 86.144 737.444 84.32C736.388 82.448 735.86 80.096 735.86 77.264C735.86 73.088 737.324 70.016 740.252 68.048C743.18 66.032 747.572 64.928 753.428 64.736L760.268 64.52V62.792C760.268 60.728 759.716 59.216 758.612 58.256C757.556 57.296 756.068 56.816 754.148 56.816C752.228 56.816 750.356 57.104 748.532 57.68C746.708 58.208 744.884 58.88 743.06 59.696L739.532 52.424C741.644 51.32 743.972 50.456 746.516 49.832C749.108 49.208 751.796 48.896 754.58 48.896ZM756.092 70.928C752.636 71.024 750.236 71.648 748.892 72.8C747.548 73.952 746.876 75.464 746.876 77.336C746.876 78.968 747.356 80.144 748.316 80.864C749.276 81.536 750.524 81.872 752.06 81.872C754.364 81.872 756.308 81.2 757.892 79.856C759.476 78.464 760.268 76.52 760.268 74.024V70.784L756.092 70.928ZM760.916 33.848C761.588 34.904 762.452 36.104 763.508 37.448C764.612 38.744 765.74 40.016 766.892 41.264C768.044 42.512 769.052 43.568 769.916 44.432V45.368H762.788C761.54 44.6 760.172 43.712 758.684 42.704C757.196 41.648 755.828 40.472 754.58 39.176C753.332 40.472 751.988 41.624 750.548 42.632C749.108 43.64 747.764 44.552 746.516 45.368H739.388V44.432C740.3 43.52 741.308 42.464 742.412 41.264C743.564 40.016 744.668 38.744 745.724 37.448C746.828 36.104 747.716 34.904 748.388 33.848H760.916ZM753.716 104.12C752.084 104.12 750.692 103.736 749.54 102.968C748.436 102.2 747.884 100.832 747.884 98.864C747.884 96.848 748.436 95.456 749.54 94.688C750.692 93.968 752.084 93.608 753.716 93.608C755.3 93.608 756.668 93.968 757.82 94.688C758.972 95.456 759.548 96.848 759.548 98.864C759.548 100.832 758.972 102.2 757.82 102.968C756.668 103.736 755.3 104.12 753.716 104.12ZM803.145 78.56V89H796.881C792.417 89 788.937 87.92 786.441 85.76C783.945 83.552 782.697 79.976 782.697 75.032V59.048H777.801V48.824H782.697V39.032H795.009V48.824H803.073V59.048H795.009V75.176C795.009 76.376 795.297 77.24 795.873 77.768C796.449 78.296 797.409 78.56 798.753 78.56H803.145Z" fill="black"/>
</svg>
