<svg width="128" height="128" viewBox="0 0 128 128" fill="none" xmlns="http://www.w3.org/2000/svg">
<rect width="128" height="128" rx="12" fill="#22C55E"/>
<path fill-rule="evenodd" clip-rule="evenodd" d="M76.3919 74.9466C76.4437 74.7817 76.4926 74.6164 76.5388 74.4507C76.4899 74.6024 76.4406 74.7682 76.3919 74.9466Z" fill="white"/>
<path fill-rule="evenodd" clip-rule="evenodd" d="M49.6876 58.9664C49.5834 59.0817 49.4678 59.2039 49.3415 59.3316C49.4552 59.2078 49.5706 59.0861 49.6876 58.9664Z" fill="white"/>
<path d="M76.3919 74.9466C76.4406 74.7682 76.4899 74.6024 76.5388 74.4507C78.451 67.5862 75.5754 60.038 69.1189 56.3104C62.6576 52.5799 54.6755 53.8684 49.6876 58.9664C49.5834 59.0817 49.4678 59.2039 49.3415 59.3316C47.5323 61.1605 43.5317 64.1068 39.4849 63.6381C33.22 62.7617 26.7636 65.672 23.4061 71.4873C18.9878 79.1401 21.6095 88.9253 29.2625 93.3437C35.4981 96.9438 40.6993 96.8676 42.5209 96.3796C43.8036 96.1579 46.6386 96.4476 47.717 99.3796C48.2052 101.201 50.7398 105.744 56.9753 109.344C64.6283 113.762 74.4134 111.14 78.8317 103.487C82.1892 97.672 81.4815 90.6255 77.59 85.6381C75.1647 82.3733 75.7126 77.4374 76.3919 74.9466Z" fill="white"/>
<path d="M99.4034 87.5163C91.3948 91.2508 82.6319 89.409 79.8311 83.4025C77.0302 77.396 81.2519 69.4994 89.2606 65.7649C97.2692 62.0304 106.032 63.8723 108.833 69.8787C111.634 75.8852 107.412 83.7818 99.4034 87.5163Z" fill="white"/>
<path d="M76.2708 39.5581C73.2485 47.8617 65.7499 52.7557 59.5222 50.4889C53.2944 48.2222 50.6959 39.6533 53.7182 31.3496C56.7405 23.046 64.2391 18.1521 70.4668 20.4188C76.6946 22.6855 79.2931 31.2545 76.2708 39.5581Z" fill="white"/>
<path d="M97.57 56.6676C91.89 63.4368 83.1698 65.4709 78.0929 61.2108C73.016 56.9508 73.5049 48.0099 79.185 41.2407C84.865 34.4715 93.5852 32.4374 98.6621 36.6974C103.739 40.9574 103.25 49.8984 97.57 56.6676Z" fill="white"/>
<path d="M49.9946 43.0948C50.7648 51.8977 46.037 59.5021 39.4348 60.0797C32.8326 60.6574 26.8561 53.9894 26.0859 45.1865C25.3158 36.3836 30.0436 28.7791 36.6458 28.2015C43.248 27.6239 49.2245 34.2918 49.9946 43.0948Z" fill="white"/>
</svg>
